<mxfile host="app.diagrams.net" agent="Mozilla/5.0 (Macintosh; Intel Mac OS X 10_15_7) AppleWebKit/537.36 (KHTML, like Gecko) Chrome/128.0.0.0 Safari/537.36" version="24.7.17">
  <diagram name="第 1 页" id="wz_W2gVirhJzZ2KygmmY">
    <mxGraphModel dx="2047" dy="493" grid="0" gridSize="10" guides="1" tooltips="1" connect="1" arrows="1" fold="1" page="0" pageScale="1" pageWidth="827" pageHeight="1169" math="0" shadow="0">
      <root>
        <mxCell id="0" />
        <mxCell id="1" parent="0" />
        <mxCell id="rDtSRGj8fWeBVhaAIqOp-107" value="" style="rounded=0;whiteSpace=wrap;html=1;shadow=1;" vertex="1" parent="1">
          <mxGeometry x="-157" y="560" width="1087" height="822" as="geometry" />
        </mxCell>
        <mxCell id="rDtSRGj8fWeBVhaAIqOp-14" value="&lt;font style=&quot;font-size: 18px;&quot;&gt;客户端&lt;/font&gt;" style="rounded=0;whiteSpace=wrap;html=1;" vertex="1" parent="1">
          <mxGeometry x="-105" y="591" width="957" height="71" as="geometry" />
        </mxCell>
        <mxCell id="rDtSRGj8fWeBVhaAIqOp-17" value="" style="sketch=0;pointerEvents=1;shadow=0;dashed=0;html=1;strokeColor=none;labelPosition=center;verticalLabelPosition=bottom;verticalAlign=top;align=center;fillColor=#515151;shape=mxgraph.mscae.system_center.admin_console" vertex="1" parent="1">
          <mxGeometry x="67" y="614" width="50" height="36" as="geometry" />
        </mxCell>
        <mxCell id="rDtSRGj8fWeBVhaAIqOp-18" value="" style="sketch=0;pointerEvents=1;shadow=0;dashed=0;html=1;strokeColor=none;labelPosition=center;verticalLabelPosition=bottom;verticalAlign=top;align=center;fillColor=#515151;shape=mxgraph.mscae.system_center.admin_console" vertex="1" parent="1">
          <mxGeometry x="673" y="614" width="50" height="36" as="geometry" />
        </mxCell>
        <mxCell id="rDtSRGj8fWeBVhaAIqOp-20" value="Shenyu-Gateway" style="rounded=0;whiteSpace=wrap;html=1;" vertex="1" parent="1">
          <mxGeometry x="117" y="733" width="525" height="62" as="geometry" />
        </mxCell>
        <mxCell id="rDtSRGj8fWeBVhaAIqOp-23" value="" style="sketch=0;aspect=fixed;pointerEvents=1;shadow=0;dashed=0;html=1;strokeColor=none;labelPosition=center;verticalLabelPosition=bottom;verticalAlign=top;align=center;fillColor=#00188D;shape=mxgraph.mscae.enterprise.gateway" vertex="1" parent="1">
          <mxGeometry x="226.25" y="739" width="50" height="50" as="geometry" />
        </mxCell>
        <mxCell id="rDtSRGj8fWeBVhaAIqOp-26" value="" style="rounded=0;whiteSpace=wrap;html=1;" vertex="1" parent="1">
          <mxGeometry x="122.5" y="886.5" width="140.5" height="131.5" as="geometry" />
        </mxCell>
        <mxCell id="rDtSRGj8fWeBVhaAIqOp-28" value="" style="image;sketch=0;aspect=fixed;html=1;points=[];align=center;fontSize=12;image=img/lib/mscae/Security_Center.svg;" vertex="1" parent="1">
          <mxGeometry x="459.25" y="736" width="36" height="50" as="geometry" />
        </mxCell>
        <mxCell id="rDtSRGj8fWeBVhaAIqOp-30" value="实例1" style="rounded=0;whiteSpace=wrap;html=1;" vertex="1" parent="1">
          <mxGeometry x="135" y="922" width="108" height="25" as="geometry" />
        </mxCell>
        <mxCell id="rDtSRGj8fWeBVhaAIqOp-31" value="&lt;meta charset=&quot;utf-8&quot;&gt;&lt;span style=&quot;color: rgb(0, 0, 0); font-family: Helvetica; font-size: 12px; font-style: normal; font-variant-ligatures: normal; font-variant-caps: normal; font-weight: 400; letter-spacing: normal; orphans: 2; text-align: center; text-indent: 0px; text-transform: none; widows: 2; word-spacing: 0px; -webkit-text-stroke-width: 0px; white-space: normal; background-color: rgb(255, 255, 255); text-decoration-thickness: initial; text-decoration-style: initial; text-decoration-color: initial; display: inline !important; float: none;&quot;&gt;实例1&lt;/span&gt;" style="rounded=0;whiteSpace=wrap;html=1;" vertex="1" parent="1">
          <mxGeometry x="135" y="952" width="108" height="25" as="geometry" />
        </mxCell>
        <mxCell id="rDtSRGj8fWeBVhaAIqOp-32" value="Ads-Data-服务" style="text;html=1;align=center;verticalAlign=middle;whiteSpace=wrap;rounded=0;" vertex="1" parent="1">
          <mxGeometry x="147" y="892" width="89" height="30" as="geometry" />
        </mxCell>
        <mxCell id="rDtSRGj8fWeBVhaAIqOp-33" value="..." style="rounded=0;whiteSpace=wrap;html=1;" vertex="1" parent="1">
          <mxGeometry x="135" y="985" width="108" height="25" as="geometry" />
        </mxCell>
        <mxCell id="rDtSRGj8fWeBVhaAIqOp-38" value="" style="rounded=0;whiteSpace=wrap;html=1;" vertex="1" parent="1">
          <mxGeometry x="302" y="886.5" width="140.5" height="131.5" as="geometry" />
        </mxCell>
        <mxCell id="rDtSRGj8fWeBVhaAIqOp-39" value="实例1" style="rounded=0;whiteSpace=wrap;html=1;" vertex="1" parent="1">
          <mxGeometry x="314.5" y="922" width="108" height="25" as="geometry" />
        </mxCell>
        <mxCell id="rDtSRGj8fWeBVhaAIqOp-40" value="&lt;meta charset=&quot;utf-8&quot;&gt;&lt;span style=&quot;color: rgb(0, 0, 0); font-family: Helvetica; font-size: 12px; font-style: normal; font-variant-ligatures: normal; font-variant-caps: normal; font-weight: 400; letter-spacing: normal; orphans: 2; text-align: center; text-indent: 0px; text-transform: none; widows: 2; word-spacing: 0px; -webkit-text-stroke-width: 0px; white-space: normal; background-color: rgb(255, 255, 255); text-decoration-thickness: initial; text-decoration-style: initial; text-decoration-color: initial; display: inline !important; float: none;&quot;&gt;实例1&lt;/span&gt;" style="rounded=0;whiteSpace=wrap;html=1;" vertex="1" parent="1">
          <mxGeometry x="314.5" y="952" width="108" height="25" as="geometry" />
        </mxCell>
        <mxCell id="rDtSRGj8fWeBVhaAIqOp-41" value="Login-服务" style="text;html=1;align=center;verticalAlign=middle;whiteSpace=wrap;rounded=0;" vertex="1" parent="1">
          <mxGeometry x="326.5" y="892" width="89" height="30" as="geometry" />
        </mxCell>
        <mxCell id="rDtSRGj8fWeBVhaAIqOp-42" value="..." style="rounded=0;whiteSpace=wrap;html=1;" vertex="1" parent="1">
          <mxGeometry x="314.5" y="985" width="108" height="25" as="geometry" />
        </mxCell>
        <mxCell id="rDtSRGj8fWeBVhaAIqOp-43" value="" style="rounded=0;whiteSpace=wrap;html=1;" vertex="1" parent="1">
          <mxGeometry x="499" y="885" width="140.5" height="131.5" as="geometry" />
        </mxCell>
        <mxCell id="rDtSRGj8fWeBVhaAIqOp-44" value="实例1" style="rounded=0;whiteSpace=wrap;html=1;" vertex="1" parent="1">
          <mxGeometry x="511.5" y="920.5" width="108" height="25" as="geometry" />
        </mxCell>
        <mxCell id="rDtSRGj8fWeBVhaAIqOp-45" value="&lt;meta charset=&quot;utf-8&quot;&gt;&lt;span style=&quot;color: rgb(0, 0, 0); font-family: Helvetica; font-size: 12px; font-style: normal; font-variant-ligatures: normal; font-variant-caps: normal; font-weight: 400; letter-spacing: normal; orphans: 2; text-align: center; text-indent: 0px; text-transform: none; widows: 2; word-spacing: 0px; -webkit-text-stroke-width: 0px; white-space: normal; background-color: rgb(255, 255, 255); text-decoration-thickness: initial; text-decoration-style: initial; text-decoration-color: initial; display: inline !important; float: none;&quot;&gt;实例1&lt;/span&gt;" style="rounded=0;whiteSpace=wrap;html=1;" vertex="1" parent="1">
          <mxGeometry x="511.5" y="950.5" width="108" height="25" as="geometry" />
        </mxCell>
        <mxCell id="rDtSRGj8fWeBVhaAIqOp-46" value="其他等服务" style="text;html=1;align=center;verticalAlign=middle;whiteSpace=wrap;rounded=0;" vertex="1" parent="1">
          <mxGeometry x="523.5" y="890.5" width="89" height="30" as="geometry" />
        </mxCell>
        <mxCell id="rDtSRGj8fWeBVhaAIqOp-47" value="..." style="rounded=0;whiteSpace=wrap;html=1;" vertex="1" parent="1">
          <mxGeometry x="511.5" y="983.5" width="108" height="25" as="geometry" />
        </mxCell>
        <mxCell id="rDtSRGj8fWeBVhaAIqOp-48" value="" style="shape=flexArrow;endArrow=classic;startArrow=classic;html=1;rounded=0;" edge="1" parent="1">
          <mxGeometry width="100" height="100" relative="1" as="geometry">
            <mxPoint x="174" y="882" as="sourcePoint" />
            <mxPoint x="172" y="798" as="targetPoint" />
          </mxGeometry>
        </mxCell>
        <mxCell id="rDtSRGj8fWeBVhaAIqOp-54" value="" style="shape=flexArrow;endArrow=classic;startArrow=classic;html=1;rounded=0;" edge="1" parent="1">
          <mxGeometry width="100" height="100" relative="1" as="geometry">
            <mxPoint x="369.5" y="885" as="sourcePoint" />
            <mxPoint x="367.5" y="801" as="targetPoint" />
          </mxGeometry>
        </mxCell>
        <mxCell id="rDtSRGj8fWeBVhaAIqOp-55" value="" style="shape=flexArrow;endArrow=classic;startArrow=classic;html=1;rounded=0;" edge="1" parent="1">
          <mxGeometry width="100" height="100" relative="1" as="geometry">
            <mxPoint x="566.5" y="883" as="sourcePoint" />
            <mxPoint x="564.5" y="799" as="targetPoint" />
          </mxGeometry>
        </mxCell>
        <mxCell id="rDtSRGj8fWeBVhaAIqOp-56" value="&lt;font style=&quot;font-size: 14px;&quot;&gt;Skywalking-OAP(日志分析平台)&lt;/font&gt;" style="rounded=0;whiteSpace=wrap;html=1;" vertex="1" parent="1">
          <mxGeometry x="116" y="1098" width="529" height="60" as="geometry" />
        </mxCell>
        <mxCell id="rDtSRGj8fWeBVhaAIqOp-57" value="" style="shape=mxgraph.gcp2.doubleRect;strokeColor=#dddddd;shadow=1;strokeWidth=1;rounded=1;absoluteArcSize=1;arcSize=2;" vertex="1" parent="1">
          <mxGeometry x="145" y="1110.5" width="93" height="35" as="geometry" />
        </mxCell>
        <mxCell id="rDtSRGj8fWeBVhaAIqOp-58" value="&lt;font color=&quot;#000000&quot;&gt;链路追踪&lt;/font&gt;&lt;br&gt;Trace" style="editableCssRules=.*;html=1;fontColor=#999999;shape=image;verticalLabelPosition=middle;verticalAlign=middle;labelPosition=right;align=left;spacingLeft=20;part=1;points=[];imageAspect=0;image=data:image/svg+xml,PHN2ZyB4bWxucz0iaHR0cDovL3d3dy53My5vcmcvMjAwMC9zdmciIHhtbG5zOnY9Imh0dHBzOi8vdmVjdGEuaW8vbmFubyIgd2lkdGg9IjIwIiBoZWlnaHQ9IjIwIiB2aWV3Qm94PSIwIDAgMjAgMjAiPiYjeGE7CTxzdHlsZSB0eXBlPSJ0ZXh0L2NzcyI+JiN4YTsJLnN0MHtmaWxsOiM0Mjg1ZjQ7fSYjeGE7CS5zdDF7ZmlsbDojNjY5ZGY2O30mI3hhOwk8L3N0eWxlPiYjeGE7CTxwYXRoIGNsYXNzPSJzdDAiIGQ9Ik0yMCA4SDEwdjRoMTB6bTAgOEgxMHY0aDEweiIgZmlsbD0iIzQyODVmNCIvPiYjeGE7CTxwYXRoIGNsYXNzPSJzdDEiIGQ9Ik0xMCAxNkg2djRoNHpNMCAwaDZ2NEgwem0wIDhoMTB2NEgweiIgZmlsbD0iIzY2OWRmNiIvPiYjeGE7PC9zdmc+;" vertex="1" parent="rDtSRGj8fWeBVhaAIqOp-57">
          <mxGeometry width="30" height="30" relative="1" as="geometry">
            <mxPoint x="15" y="15" as="offset" />
          </mxGeometry>
        </mxCell>
        <mxCell id="rDtSRGj8fWeBVhaAIqOp-59" value="" style="image;aspect=fixed;html=1;points=[];align=center;fontSize=12;image=img/lib/azure2/other/Log_Analytics_Query_Pack.svg;" vertex="1" parent="1">
          <mxGeometry x="541" y="1110.5" width="41" height="41" as="geometry" />
        </mxCell>
        <mxCell id="rDtSRGj8fWeBVhaAIqOp-64" value="Skywalking-Agent" style="rounded=0;whiteSpace=wrap;html=1;" vertex="1" parent="1">
          <mxGeometry x="757" y="729" width="112" height="438" as="geometry" />
        </mxCell>
        <mxCell id="rDtSRGj8fWeBVhaAIqOp-65" value="" style="shape=flexArrow;endArrow=classic;html=1;rounded=0;" edge="1" parent="1">
          <mxGeometry width="50" height="50" relative="1" as="geometry">
            <mxPoint x="649" y="756" as="sourcePoint" />
            <mxPoint x="749" y="756" as="targetPoint" />
          </mxGeometry>
        </mxCell>
        <mxCell id="rDtSRGj8fWeBVhaAIqOp-66" value="" style="shape=flexArrow;endArrow=classic;html=1;rounded=0;" edge="1" parent="1">
          <mxGeometry width="50" height="50" relative="1" as="geometry">
            <mxPoint x="646" y="952" as="sourcePoint" />
            <mxPoint x="746" y="952" as="targetPoint" />
          </mxGeometry>
        </mxCell>
        <mxCell id="rDtSRGj8fWeBVhaAIqOp-67" value="" style="image;sketch=0;aspect=fixed;html=1;points=[];align=center;fontSize=12;image=img/lib/mscae/Batch_Accounts.svg;" vertex="1" parent="1">
          <mxGeometry x="785" y="870" width="50" height="48" as="geometry" />
        </mxCell>
        <mxCell id="rDtSRGj8fWeBVhaAIqOp-69" value="" style="shape=flexArrow;endArrow=classic;html=1;rounded=0;" edge="1" parent="1">
          <mxGeometry width="50" height="50" relative="1" as="geometry">
            <mxPoint x="742" y="1128" as="sourcePoint" />
            <mxPoint x="645" y="1127.5" as="targetPoint" />
          </mxGeometry>
        </mxCell>
        <mxCell id="rDtSRGj8fWeBVhaAIqOp-70" value="logback+trace" style="rounded=0;whiteSpace=wrap;html=1;" vertex="1" parent="1">
          <mxGeometry x="763" y="1120" width="97" height="31.5" as="geometry" />
        </mxCell>
        <mxCell id="rDtSRGj8fWeBVhaAIqOp-73" value="Nacos注册中心" style="rounded=0;whiteSpace=wrap;html=1;" vertex="1" parent="1">
          <mxGeometry x="-107" y="729" width="120" height="438" as="geometry" />
        </mxCell>
        <mxCell id="rDtSRGj8fWeBVhaAIqOp-77" value="" style="shape=flexArrow;endArrow=classic;html=1;rounded=0;" edge="1" parent="1">
          <mxGeometry width="50" height="50" relative="1" as="geometry">
            <mxPoint x="113" y="761" as="sourcePoint" />
            <mxPoint x="16" y="760.5" as="targetPoint" />
          </mxGeometry>
        </mxCell>
        <mxCell id="rDtSRGj8fWeBVhaAIqOp-80" value="" style="shape=flexArrow;endArrow=classic;html=1;rounded=0;" edge="1" parent="1">
          <mxGeometry width="50" height="50" relative="1" as="geometry">
            <mxPoint x="116" y="961.5" as="sourcePoint" />
            <mxPoint x="19" y="961" as="targetPoint" />
          </mxGeometry>
        </mxCell>
        <mxCell id="rDtSRGj8fWeBVhaAIqOp-81" value="" style="shape=flexArrow;endArrow=classic;html=1;rounded=0;" edge="1" parent="1">
          <mxGeometry width="50" height="50" relative="1" as="geometry">
            <mxPoint x="112" y="1135.75" as="sourcePoint" />
            <mxPoint x="15" y="1135.25" as="targetPoint" />
          </mxGeometry>
        </mxCell>
        <mxCell id="rDtSRGj8fWeBVhaAIqOp-82" value="" style="sketch=0;points=[[0.015,0.015,0],[0.985,0.015,0],[0.985,0.985,0],[0.015,0.985,0],[0.25,0,0],[0.5,0,0],[0.75,0,0],[1,0.25,0],[1,0.5,0],[1,0.75,0],[0.75,1,0],[0.5,1,0],[0.25,1,0],[0,0.75,0],[0,0.5,0],[0,0.25,0]];verticalLabelPosition=bottom;html=1;verticalAlign=top;aspect=fixed;align=center;pointerEvents=1;shape=mxgraph.cisco19.rect;prIcon=nexus_9300;fillColor=#FAFAFA;strokeColor=#005073;" vertex="1" parent="1">
          <mxGeometry x="-79" y="886.5" width="50" height="50" as="geometry" />
        </mxCell>
        <mxCell id="rDtSRGj8fWeBVhaAIqOp-86" value="elasticsearch" style="rounded=0;whiteSpace=wrap;html=1;" vertex="1" parent="1">
          <mxGeometry x="-103" y="1242" width="456" height="92" as="geometry" />
        </mxCell>
        <mxCell id="rDtSRGj8fWeBVhaAIqOp-87" value="" style="image;sketch=0;aspect=fixed;html=1;points=[];align=center;fontSize=12;image=img/lib/mscae/Databricks.svg;" vertex="1" parent="1">
          <mxGeometry x="-37" y="1266" width="50" height="48" as="geometry" />
        </mxCell>
        <mxCell id="rDtSRGj8fWeBVhaAIqOp-88" value="" style="image;sketch=0;aspect=fixed;html=1;points=[];align=center;fontSize=12;image=img/lib/mscae/Databricks.svg;" vertex="1" parent="1">
          <mxGeometry x="269" y="1266" width="50" height="48" as="geometry" />
        </mxCell>
        <mxCell id="rDtSRGj8fWeBVhaAIqOp-89" value="" style="shape=flexArrow;endArrow=classic;html=1;rounded=0;" edge="1" parent="1">
          <mxGeometry width="50" height="50" relative="1" as="geometry">
            <mxPoint x="179" y="1167" as="sourcePoint" />
            <mxPoint x="179" y="1234" as="targetPoint" />
          </mxGeometry>
        </mxCell>
        <mxCell id="rDtSRGj8fWeBVhaAIqOp-95" value="Skywalking-UI(可视化)" style="rounded=0;whiteSpace=wrap;html=1;" vertex="1" parent="1">
          <mxGeometry x="503" y="1246" width="390" height="82" as="geometry" />
        </mxCell>
        <mxCell id="rDtSRGj8fWeBVhaAIqOp-98" value="" style="image;sketch=0;aspect=fixed;html=1;points=[];align=center;fontSize=12;image=img/lib/mscae/Azure_Boards.svg;" vertex="1" parent="1">
          <mxGeometry x="582" y="1266" width="50" height="50" as="geometry" />
        </mxCell>
        <mxCell id="rDtSRGj8fWeBVhaAIqOp-102" value="" style="image;sketch=0;aspect=fixed;html=1;points=[];align=center;fontSize=12;image=img/lib/mscae/Azure_Boards.svg;" vertex="1" parent="1">
          <mxGeometry x="819" y="1266" width="50" height="50" as="geometry" />
        </mxCell>
        <mxCell id="rDtSRGj8fWeBVhaAIqOp-104" value="" style="shape=flexArrow;endArrow=classic;html=1;rounded=0;" edge="1" parent="1">
          <mxGeometry width="50" height="50" relative="1" as="geometry">
            <mxPoint x="595" y="1164" as="sourcePoint" />
            <mxPoint x="595" y="1239" as="targetPoint" />
          </mxGeometry>
        </mxCell>
        <mxCell id="rDtSRGj8fWeBVhaAIqOp-105" value="" style="shape=flexArrow;endArrow=classic;html=1;rounded=0;entryX=0;entryY=0.5;entryDx=0;entryDy=0;" edge="1" parent="1" target="rDtSRGj8fWeBVhaAIqOp-95">
          <mxGeometry width="50" height="50" relative="1" as="geometry">
            <mxPoint x="358" y="1285" as="sourcePoint" />
            <mxPoint x="199" y="1254" as="targetPoint" />
          </mxGeometry>
        </mxCell>
        <mxCell id="rDtSRGj8fWeBVhaAIqOp-108" value="" style="shape=flexArrow;endArrow=classic;html=1;rounded=0;" edge="1" parent="1">
          <mxGeometry width="50" height="50" relative="1" as="geometry">
            <mxPoint x="368" y="666" as="sourcePoint" />
            <mxPoint x="368" y="733" as="targetPoint" />
          </mxGeometry>
        </mxCell>
      </root>
    </mxGraphModel>
  </diagram>
</mxfile>
